<svg width="748" height="828" viewBox="0 0 748 828" fill="none" xmlns="http://www.w3.org/2000/svg">
<g clip-path="url(#clip0_29_118)">
<path d="M-1.60139 24.446L-171 70.3193L48.8261 882.081C244.584 824.511 649.57 514.268 658.281 376.19C667.192 234.951 238.467 88.4195 -1.60139 24.446Z" fill="#FFEDB9"/>
<path d="M39.1824 -12.8794L-135 8.58546L-32.1399 843.271C169.79 813.954 614.568 564.079 642.712 428.619C671.5 290.058 267.795 84.3899 39.1824 -12.8794Z" fill="#FEC830"/>
<path d="M77.5 -32H-98V809C106 804.6 578 611 622.5 480C668.019 346 292.5 92.5 77.5 -32Z" fill="#364878"/>
</g>
<path opacity="0.03" d="M347 571.582C446.111 571.582 526.456 561.334 526.456 548.692C526.456 536.051 446.111 525.803 347 525.803C247.889 525.803 167.544 536.051 167.544 548.692C167.544 561.334 247.889 571.582 347 571.582Z" fill="#000001"/>
<path d="M246.481 310.042C222.078 336.866 131.651 391.14 304.46 422.632L307.654 407.345C307.654 407.345 230.215 390.048 236.602 359.472" fill="#F4A28C"/>
<path d="M302.726 405.756L312.857 405.855C317.525 405.901 321.559 409.133 322.621 413.678L323.408 417.025C324.088 419.928 322.269 422.823 319.358 423.473L316.425 424.13C310.511 425.452 304.323 424.474 299.105 421.395L297.646 420.531L302.726 405.763V405.756Z" fill="#24285B"/>
<path opacity="0.08" d="M246.481 310.042C222.078 336.866 131.651 391.14 304.46 422.632L307.654 407.345C307.654 407.345 230.215 390.048 236.602 359.472" fill="#000001"/>
<path d="M199.028 501.485C199.028 501.485 194.276 505.702 195.858 510.882C197.439 516.062 193.062 519.339 189.983 515.344C186.904 511.348 188.05 497.405 188.05 497.405L196.163 494.578L199.028 501.492V501.485Z" fill="#68E1FD"/>
<path d="M263.923 534.314C263.923 534.314 265.008 540.571 270.241 541.954C275.482 543.337 275.956 548.784 270.936 549.296C265.917 549.808 254.663 541.495 254.663 541.495L256.527 533.107L263.915 534.306L263.923 534.314Z" fill="#68E1FD"/>
<path d="M321.421 285.464C321.421 285.464 318.403 294.639 314.4 299.88C312.773 302.004 309.686 302.417 307.578 300.759C304.965 298.704 302.031 295.167 303.055 290.055L303.719 281.17C303.719 281.17 304.331 275.616 310.878 274.157C317.426 272.697 323.545 279.971 321.421 285.464Z" fill="#F4A28C"/>
<path d="M307.837 282.591L280.303 305.236L295.438 315.359L308.059 296.145L307.837 282.591Z" fill="#F4A28C"/>
<path d="M270.349 379.124L266.565 383.807L441.516 525.176L445.3 520.494L270.349 379.124Z" fill="#FFD200"/>
<path opacity="0.46" d="M270.349 379.124L266.565 383.807L441.516 525.176L445.3 520.494L270.349 379.124Z" fill="white"/>
<path d="M319.061 284.891C317.479 284.31 314.637 283.08 311.145 280.758C311.145 280.758 312.269 285.808 307.669 288.879C303.07 291.95 299.357 288.168 299.357 288.168L304.384 276.831C305.744 273.477 308.823 271.124 312.414 270.734C313.881 270.573 315.477 270.466 317.021 270.505C320.864 270.596 324.737 274.844 328.633 273.889C330.337 273.469 327.037 277.113 326.594 278.809C325.623 282.499 327.503 285.624 321.994 285.51C320.986 285.487 320.008 285.242 319.061 284.898V284.891Z" fill="#24285B"/>
<path d="M308.731 289.016C308.731 289.016 310.129 285.571 307.448 284.738C304.766 283.905 302.719 288.871 306.011 290.819L308.731 289.016Z" fill="#F4A28C"/>
<path d="M264.557 432.282C264.557 432.282 296.232 457.922 289.463 488.199C282.694 518.469 264.603 535.047 264.603 535.047L254.663 531.533C254.663 531.533 278.064 488.917 260.263 470.749C242.454 452.589 237.114 435.108 237.114 435.108L264.557 432.282Z" fill="#24285B"/>
<path d="M245.778 432.037L263.365 453.643C272.51 464.874 267.544 481.789 253.777 486.296L199.021 504.22L194.2 490.926L235.38 474.432C240.093 472.544 240.346 465.966 235.785 463.736C219.519 455.759 193.489 440.51 197.989 426.376C204.461 406.054 245.778 432.045 245.778 432.045V432.037Z" fill="#24285B"/>
<path d="M319.221 291.14L320.229 295.617C320.482 296.725 319.496 297.711 318.388 297.466L314.721 296.649L319.221 291.133V291.14Z" fill="#F4A28C"/>
<path opacity="0.31" d="M307.7 296.687C307.7 296.687 305.606 293.577 305.752 290.682C305.752 290.682 300.022 294.571 304.086 302.195L307.7 296.695V296.687Z" fill="#CE8172"/>
<path d="M302.023 278.366L328.473 290.896C328.977 291.133 329.527 290.651 329.352 290.124C328.511 287.572 328.664 284.83 329.65 282.331C330.903 279.161 331.789 274.019 328.19 268.381C322.262 259.075 302.925 261.107 302.023 278.366Z" fill="#FFD200"/>
<path d="M317.67 346.416C311.016 306.55 263.502 287.771 231.605 312.586C226.922 316.23 222.537 320.86 218.854 326.735C199.212 358.067 196.217 418.866 196.217 418.866L267.254 434.429C267.254 434.429 279.065 404.61 300.702 398.33C312.727 394.838 321.696 370.558 317.662 346.423L317.67 346.416Z" fill="#68E1FD"/>
<path opacity="0.08" d="M274.924 328.34C274.924 328.34 274.672 355.469 252.944 380.055C231.223 404.64 281.563 411.425 281.563 411.425C281.563 411.425 272.204 424.435 270.547 427.514C268.889 430.593 250.95 434.948 250.95 434.948L206.462 414.099L227.617 364.011L274.917 328.324L274.924 328.34Z" fill="#000001"/>
<path d="M248.834 407.431L245.758 412.607L436.438 525.914L439.513 520.739L248.834 407.431Z" fill="#FFD200"/>
<path opacity="0.46" d="M248.834 407.431L245.758 412.607L436.438 525.914L439.513 520.739L248.834 407.431Z" fill="white"/>
<path d="M273.633 321.502C271.838 306.863 255.458 298.887 242.363 305.679C233.004 310.538 221.712 319.24 213.254 334.727C195.866 366.539 131.896 455.293 276.651 444.215V427.193C276.651 427.193 215.447 432.794 214.438 401.569C213.629 376.418 277.002 349.029 273.633 321.502Z" fill="#F4A28C"/>
<path d="M253.884 301.844C253.884 301.844 227.9 297.245 208.915 338.783L245.182 364.82C245.182 364.82 307.303 319.469 253.884 301.844Z" fill="#68E1FD"/>
<path opacity="0.3" d="M253.884 301.844C253.884 301.844 227.9 297.245 208.915 338.783L245.182 364.82C245.182 364.82 307.303 319.469 253.884 301.844Z" fill="white"/>
<path d="M275.406 427.805L284.902 424.29C289.28 422.671 294.2 424.26 296.813 428.126L298.738 430.975C300.404 433.443 299.731 436.797 297.248 438.44L294.742 440.097C289.685 443.436 283.55 444.72 277.583 443.696L275.917 443.413L275.413 427.805H275.406Z" fill="#24285B"/>
<path d="M363.617 418.155L356.588 478.427L442.714 530.792L491.136 490.208L363.617 418.155Z" fill="#FFD200"/>
<path opacity="0.08" d="M361.401 437.141C361.401 437.141 366.673 466.708 394.368 481.728C422.063 496.74 471.967 506.283 471.967 506.283L442.714 530.799L356.588 478.435L361.401 437.141Z" fill="#000001"/>
<path d="M371.761 422.755C371.761 422.755 387.744 401.928 407.196 416.742C426.647 431.564 445.029 424.993 458.086 419.966C483.015 410.37 531.483 445.262 484.742 486.594L371.754 422.747L371.761 422.755Z" fill="#DBDBDB"/>
<path d="M443.409 549.273C450.688 549.273 456.588 543.373 456.588 536.094C456.588 528.815 450.688 522.915 443.409 522.915C436.131 522.915 430.23 528.815 430.23 536.094C430.23 543.373 436.131 549.273 443.409 549.273Z" fill="#24285B"/>
<path d="M443.409 541.755C446.536 541.755 449.07 539.221 449.07 536.094C449.07 532.967 446.536 530.433 443.409 530.433C440.283 530.433 437.748 532.967 437.748 536.094C437.748 539.221 440.283 541.755 443.409 541.755Z" fill="#FFD200"/>
<path d="M490.838 406.313C494.23 411.509 502.23 409.125 502.214 402.921C502.199 394.517 499.097 385.991 488.951 380.666C463.09 367.112 463.059 379.612 464.205 386.587C465.023 391.53 482.427 393.44 490.838 406.313Z" fill="#A5A5A5"/>
<path d="M439.505 407.184C444.594 407.184 448.719 403.059 448.719 397.97C448.719 392.882 444.594 388.757 439.505 388.757C434.416 388.757 430.291 392.882 430.291 397.97C430.291 403.059 434.416 407.184 439.505 407.184Z" fill="#A5A5A5"/>
<path d="M344.295 528.775H303.872V548.692H344.295V528.775Z" fill="#DBDBDB"/>
<path d="M362.204 508.468H321.78V528.385H362.204V508.468Z" fill="#DBDBDB"/>
<path d="M384.719 528.775H344.295V548.692H384.719V528.775Z" fill="#A5A5A5"/>
<defs>
<clipPath id="clip0_29_118">
<rect width="748" height="828" fill="white"/>
</clipPath>
</defs>
</svg>
