<svg transform="scale(2)" id="_0030_construction_site" xmlns="http://www.w3.org/2000/svg" viewBox="0 0 500 500" class="show_show__wrapper__graphic__5Waiy "><title>React</title><defs><style>.cls-1{fill:#f4a28c;}.cls-2{fill:#dbdbdb;}.cls-3{fill:#a5a5a5;}.cls-4{opacity:.03;}.cls-4,.cls-5{fill:#000001;}.cls-6{opacity:.3;}.cls-6,.cls-7{fill:#fff;}.cls-8{fill:#ce8172;opacity:.31;}.cls-7{opacity:.46;}.cls-9{fill:#24285b;}.cls-5{opacity:.08;}.cls-10{fill:#ffd200;}.cls-11{fill:#68e1fd;}</style></defs><ellipse class="cls-4" id="sd" cx="250" cy="424.99" rx="234.89" ry="29.96"></ellipse><g id="person"><path class="cls-1" d="m118.43,112.62c-31.94,35.11-150.3,106.15,75.89,147.37l4.18-20.01s-101.36-22.64-93-62.66"></path><path class="cls-9" d="m192.05,237.9l13.26.13c6.11.06,11.39,4.29,12.78,10.24l1.03,4.38c.89,3.8-1.49,7.59-5.3,8.44l-3.84.86c-7.74,1.73-15.84.45-22.67-3.58l-1.91-1.13,6.65-19.33Z"></path><path class="cls-5" d="m118.43,112.62c-31.94,35.11-150.3,106.15,75.89,147.37l4.18-20.01s-101.36-22.64-93-62.66"></path><path class="cls-11" d="m56.32,363.2s-6.22,5.52-4.15,12.3c2.07,6.78-3.66,11.07-7.69,5.84-4.03-5.23-2.53-23.48-2.53-23.48l10.62-3.7,3.75,9.05Z"></path><path class="cls-11" d="m141.26,406.17s1.42,8.19,8.27,10c6.86,1.81,7.48,8.94.91,9.61-6.57.67-21.3-10.21-21.3-10.21l2.44-10.98,9.67,1.57Z"></path><path class="cls-1" d="m216.52,80.45s-3.95,12.01-9.19,18.87c-2.13,2.78-6.17,3.32-8.93,1.15-3.42-2.69-7.26-7.32-5.92-14.01l.87-11.63s.8-7.27,9.37-9.18,16.58,7.61,13.8,14.8Z"></path><polygon class="cls-1" points="198.74 76.69 162.7 106.33 182.51 119.58 199.03 94.43 198.74 76.69"></polygon><rect class="cls-10" x="257.76" y="151.42" width="7.88" height="294.41" transform="translate(-135.06 314.49) rotate(-51.06)"></rect><rect class="cls-7" x="257.76" y="151.42" width="7.88" height="294.41" transform="translate(-135.06 314.49) rotate(-51.06)"></rect><path class="cls-9" d="m213.43,79.7c-2.07-.76-5.79-2.37-10.36-5.41,0,0,1.47,6.61-4.55,10.63-6.02,4.02-10.88-.93-10.88-.93l6.58-14.84c1.78-4.39,5.81-7.47,10.51-7.98,1.92-.21,4.01-.35,6.03-.3,5.03.12,10.1,5.68,15.2,4.43,2.23-.55-2.09,4.22-2.67,6.44-1.27,4.83,1.19,8.92-6.02,8.77-1.32-.03-2.6-.35-3.84-.8Z"></path><path class="cls-1" d="m199.91,85.1s1.83-4.51-1.68-5.6c-3.51-1.09-6.19,5.41-1.88,7.96l3.56-2.36Z"></path><path class="cls-9" d="m142.09,272.62s41.46,33.56,32.6,73.19c-8.86,39.62-32.54,61.32-32.54,61.32l-13.01-4.6s30.63-55.78,7.33-79.56c-23.31-23.77-30.3-46.65-30.3-46.65l35.92-3.7Z"></path><path class="cls-9" d="m117.51,272.3l23.02,28.28c11.97,14.7,5.47,36.84-12.55,42.74l-71.67,23.46-6.31-17.4,53.9-21.59c6.17-2.47,6.5-11.08.53-14-21.29-10.44-55.36-30.4-49.47-48.9,8.47-26.6,62.55,7.42,62.55,7.42Z"></path><path class="cls-1" d="m213.64,87.88l1.32,5.86c.33,1.45-.96,2.74-2.41,2.42l-4.8-1.07,5.89-7.22Z"></path><path class="cls-8" d="m198.56,95.14s-2.74-4.07-2.55-7.86c0,0-7.5,5.09-2.18,15.07l4.73-7.2Z"></path><path class="cls-10" d="m191.13,71.16l34.62,16.4c.66.31,1.38-.32,1.15-1.01h0c-1.1-3.34-.9-6.93.39-10.2,1.64-4.15,2.8-10.88-1.91-18.26-7.76-12.18-33.07-9.52-34.25,13.07Z"></path><path class="cls-11" d="m211.61,160.23c-8.71-52.18-70.9-76.76-112.65-44.28-6.13,4.77-11.87,10.83-16.69,18.52-25.71,41.01-29.63,120.59-29.63,120.59l92.98,20.37s15.46-39.03,43.78-47.25c15.74-4.57,27.48-36.35,22.2-67.94Z"></path><path class="cls-5" d="m155.66,136.57s-.33,35.51-28.77,67.69c-28.43,32.18,37.46,41.06,37.46,41.06,0,0-12.25,17.03-14.42,21.06-2.17,4.03-25.65,9.73-25.65,9.73l-58.23-27.29,27.69-65.56,61.91-46.71Z"></path><rect class="cls-10" x="240.35" y="172.5" width="7.88" height="290.32" transform="translate(-153.59 365.37) rotate(-59.28)"></rect><rect class="cls-7" x="240.35" y="172.5" width="7.88" height="290.32" transform="translate(-153.59 365.37) rotate(-59.28)"></rect><path class="cls-1" d="m153.97,127.62c-2.35-19.16-23.79-29.6-40.93-20.71-12.25,6.36-27.03,17.75-38.1,38.02-22.76,41.64-106.49,157.81,82.98,143.31v-22.28s-80.11,7.33-81.43-33.54c-1.06-32.92,81.89-68.77,77.48-104.8Z"></path><path class="cls-11" d="m128.12,101.89s-34.01-6.02-58.86,48.35l47.47,34.08s81.31-59.36,11.39-82.43Z"></path><path class="cls-6" d="m128.12,101.89s-34.01-6.02-58.86,48.35l47.47,34.08s81.31-59.36,11.39-82.43Z"></path><path class="cls-9" d="m156.29,266.76l12.43-4.6c5.73-2.12,12.17-.04,15.59,5.02l2.52,3.73c2.18,3.23,1.3,7.62-1.95,9.77l-3.28,2.17c-6.62,4.37-14.65,6.05-22.46,4.71l-2.18-.37-.66-20.43Z"></path><polygon class="cls-10" points="271.75 254.13 262.55 333.02 375.28 401.56 438.66 348.44 271.75 254.13"></polygon><path class="cls-5" d="m268.85,278.98s6.9,38.7,43.15,58.36c36.25,19.65,101.57,32.14,101.57,32.14l-38.29,32.09-112.73-68.54,6.3-54.05Z"></path><path class="cls-2" d="m282.41,260.15s20.92-27.26,46.38-7.87c25.46,19.4,49.52,10.8,66.61,4.22,32.63-12.56,96.07,33.11,34.89,87.21l-147.89-83.57Z"></path><circle class="cls-9" cx="376.19" cy="408.5" r="17.25"></circle><circle class="cls-10" cx="376.19" cy="408.5" r="7.41"></circle><path class="cls-3" d="m438.27,238.63c4.44,6.8,14.91,3.68,14.89-4.44-.02-11-4.08-22.16-17.36-29.13-33.85-17.74-33.89-1.38-32.39,7.75,1.07,6.47,23.85,8.97,34.86,25.82Z"></path><circle class="cls-3" cx="371.08" cy="227.71" r="12.06"></circle><rect class="cls-2" x="193.55" y="398.92" width="52.91" height="26.07"></rect><rect class="cls-2" x="216.99" y="372.34" width="52.91" height="26.07"></rect><rect class="cls-3" x="246.46" y="398.92" width="52.91" height="26.07"></rect></g></svg>