<svg width="41" height="41" viewBox="0 0 41 41" fill="none" xmlns="http://www.w3.org/2000/svg">
<g clip-path="url(#clip0_28_205)">
<path fill-rule="evenodd" clip-rule="evenodd" d="M14.4429 0.5C13.6851 0.5 12.9584 0.80102 12.4226 1.33684C11.8867 1.87266 11.5857 2.59938 11.5857 3.35714V15.5C11.5857 16.2578 11.8867 16.9845 12.4226 17.5203C12.9584 18.0561 13.6851 18.3571 14.4429 18.3571H26.5857C27.3435 18.3571 28.0702 18.0561 28.606 17.5203C29.1418 16.9845 29.4429 16.2578 29.4429 15.5V3.35714C29.4429 2.59938 29.1418 1.87266 28.606 1.33684C28.0702 0.80102 27.3435 0.5 26.5857 0.5L14.4429 0.5ZM3.35714 22.6429C2.59938 22.6429 1.87266 22.9439 1.33684 23.4797C0.80102 24.0155 0.5 24.7422 0.5 25.5L0.5 37.6429C0.5 38.4006 0.80102 39.1273 1.33684 39.6632C1.87266 40.199 2.59938 40.5 3.35714 40.5H15.5C16.2578 40.5 16.9845 40.199 17.5203 39.6632C18.0561 39.1273 18.3571 38.4006 18.3571 37.6429V25.5C18.3571 24.7422 18.0561 24.0155 17.5203 23.4797C16.9845 22.9439 16.2578 22.6429 15.5 22.6429H3.35714ZM22.6429 25.5C22.6429 24.7422 22.9439 24.0155 23.4797 23.4797C24.0155 22.9439 24.7422 22.6429 25.5 22.6429H37.6429C38.4006 22.6429 39.1273 22.9439 39.6632 23.4797C40.199 24.0155 40.5 24.7422 40.5 25.5V37.6429C40.5 38.4006 40.199 39.1273 39.6632 39.6632C39.1273 40.199 38.4006 40.5 37.6429 40.5H25.5C24.7422 40.5 24.0155 40.199 23.4797 39.6632C22.9439 39.1273 22.6429 38.4006 22.6429 37.6429V25.5Z" fill="#364878"/>
</g>
<defs>
<clipPath id="clip0_28_205">
<rect width="40" height="40" fill="white" transform="translate(0.5 0.5)"/>
</clipPath>
</defs>
</svg>
