<svg width="41" height="41" viewBox="0 0 41 41" fill="none" xmlns="http://www.w3.org/2000/svg">
<g clip-path="url(#clip0_28_216)">
<path d="M30.4998 3.83337H22.1665C22.1665 4.75004 21.4165 5.50004 20.4998 5.50004C19.5832 5.50004 18.8332 4.75004 18.8332 3.83337H10.4998C8.6665 3.83337 7.1665 5.33337 7.1665 7.16671V33.8334C7.1665 35.6667 8.6665 37.1667 10.4998 37.1667H30.4998C32.3332 37.1667 33.8332 35.6667 33.8332 33.8334V7.16671C33.8332 5.33337 32.3332 3.83337 30.4998 3.83337Z" fill="#EEF2FF"/>
<path d="M30.4998 34.6667H10.4998C9.99984 34.6667 9.6665 34.3334 9.6665 33.8334V7.16671C9.6665 6.66671 9.99984 6.33337 10.4998 6.33337H30.4998C30.9998 6.33337 31.3332 6.66671 31.3332 7.16671V33.8334C31.3332 34.3334 30.9998 34.6667 30.4998 34.6667Z" fill="white"/>
<path d="M22.1667 3.83337C22.1667 4.75004 21.4167 5.50004 20.5 5.50004C19.5833 5.50004 18.8333 4.75004 18.8333 3.83337H13V7.16671C13 8.08337 13.75 8.83337 14.6667 8.83337H26.3333C27.25 8.83337 28 8.08337 28 7.16671V3.83337H22.1667Z" fill="#CFD8DC"/>
<path d="M20.4998 0.5C18.6665 0.5 17.1665 2 17.1665 3.83333C17.1665 5.66667 18.6665 7.16667 20.4998 7.16667C22.3332 7.16667 23.8332 5.66667 23.8332 3.83333C23.8332 2 22.3332 0.5 20.4998 0.5ZM20.4998 5.5C19.5832 5.5 18.8332 4.75 18.8332 3.83333C18.8332 2.91667 19.5832 2.16667 20.4998 2.16667C21.4165 2.16667 22.1665 2.91667 22.1665 3.83333C22.1665 4.75 21.4165 5.5 20.4998 5.5Z" fill="#CFD8DC"/>
<path d="M18 17.1667H28V18.8334H18V17.1667ZM13 16.3334H16.3333V19.6667H13V16.3334Z" fill="#CFD8DC"/>
<path d="M18 24.6667H28V26.3334H18V24.6667ZM13 23.8334H16.3333V27.1667H13V23.8334Z" fill="#FEC830"/>
</g>
<defs>
<clipPath id="clip0_28_216">
<rect width="40" height="40" fill="white" transform="translate(0.5 0.5)"/>
</clipPath>
</defs>
</svg>
